
<svg id="visual" viewBox="0 0 900 600" width="900" height="600" xmlns="http://www.w3.org/2000/svg" xmlns:xlink="http://www.w3.org/1999/xlink" version="1.1"><path d="M0 115L30 138C60 161 120 207 180 227C240 247 300 241 360 245C420 249 480 263 540 251C600 239 660 201 720 184C780 167 840 171 870 173L900 175L900 0L870 0C840 0 780 0 720 0C660 0 600 0 540 0C480 0 420 0 360 0C300 0 240 0 180 0C120 0 60 0 30 0L0 0Z" fill="#8ba4ee"></path><path d="M0 355L30 357C60 359 120 363 180 374C240 385 300 403 360 408C420 413 480 405 540 395C600 385 660 373 720 374C780 375 840 389 870 396L900 403L900 173L870 171C840 169 780 165 720 182C660 199 600 237 540 249C480 261 420 247 360 243C300 239 240 245 180 225C120 205 60 159 30 136L0 113Z" fill="#6789e7"></path><path d="M0 517L30 511C60 505 120 493 180 494C240 495 300 509 360 515C420 521 480 519 540 513C600 507 660 497 720 489C780 481 840 475 870 472L900 469L900 401L870 394C840 387 780 373 720 372C660 371 600 383 540 393C480 403 420 411 360 406C300 401 240 383 180 372C120 361 60 357 30 355L0 353Z" fill="#4c70d0"></path><path d="M0 601L30 601C60 601 120 601 180 601C240 601 300 601 360 601C420 601 480 601 540 601C600 601 660 601 720 601C780 601 840 601 870 601L900 601L900 467L870 470C840 473 780 479 720 487C660 495 600 505 540 511C480 517 420 519 360 513C300 507 240 493 180 492C120 491 60 503 30 509L0 515Z" fill="#3c59aa"></path></svg>